# xmcd CD database file
#
# Track frame offsets:
#	150
#	20302
#	38535
#	61432
#	78082
#	102937
#	125682
#	155366
#	178166
#	201031
#	220197
#	236551
#	254803
#	269151
#
# Disc length: 3933 seconds
#
# Revision: 4
# Processed by: cddbd v1.5.2PL0 Copyright (c) Steve Scherf et al.
# Submitted via: CDex 1.70beta2
#
DISCID=c50f5b0e
DTITLE=dj TAKA - milestone [DISC 2]
DYEAR=2007
DGENRE=Game
TTITLE0=spiral galaxy -L.E.D. STYLE SPREADING PARTICLE BEAM MIX- - remixed by L.E.D.
TTITLE1=THE Safari -Ryu☆remix- - remixed by Ryu☆
TTITLE2=Don't Stop! -kors k mix- - remixed by kors k
TTITLE3=I'm In Love Again -DJ YOSHITAKA REMIX- - remixed by DJ YOSHITAKA
TTITLE4=Rainbow Flyer -In The Dream Mix- - remixed by Sota Fujimori
TTITLE5=Giudecca -Remo-con RMX size M- - remixed by Remo-con
TTITLE6=A -少年A- - remixed by 少年ラジオ
TTITLE7=MOON -Sun Mix- - remixed by AKIRA YAMAOKA
TTITLE8=こっちを向いてよ -midnight jazzin' mix- - remixed by TOMOSUKE
TTITLE9=memories -still remain mix- - remixed by Tetsuya"good-cool"Furukawa
TTITLE10=嘆きの樹 Arbre triste -a la viennoise- - remixed by Osamu Kubota
TTITLE11=GRADIUSIC CYBER -Vic Viper born duv- - remixed by dj nagureo
TTITLE12=Tangerine Stream -The catastrophe- - remixed by NAOKI underground
TTITLE13=Colors -InPhase mix- - remixed by TaQ
EXTD=YEAR: 2007
EXTT0=
EXTT1=
EXTT2=
EXTT3=
EXTT4=
EXTT5=
EXTT6=
EXTT7=
EXTT8=
EXTT9=
EXTT10=
EXTT11=
EXTT12=
EXTT13=
PLAYORDER=
